<svg xmlns="http://www.w3.org/2000/svg" width="941" height="1672" viewBox="0 0 941 1672">
  <rect width="941" height="1672" fill="#fffef8"/>
  <g stroke="#d8eaf2" stroke-width="3"><path d="M0 78h941M0 156h941M0 234h941M0 312h941M0 390h941M0 468h941M0 546h941M0 624h941M0 702h941M0 780h941M0 858h941M0 936h941M0 1014h941M0 1092h941M0 1170h941M0 1248h941M0 1326h941M0 1404h941M0 1482h941M0 1560h941"/></g>
  <g fill="#171716" font-family="PingFang SC, Hiragino Sans GB, sans-serif" text-anchor="middle"><text x="470" y="76" font-size="34">2026.08.22　周六</text><text x="470" y="142" font-family="STKaiti, Kaiti SC, serif" font-size="62" font-weight="700">把闹钟留在床头</text></g>
  <g fill="none" stroke="#171716" stroke-width="8" stroke-linecap="round" stroke-linejoin="round">
    <path d="M122 963h697v145H122zM160 963V680c0-32 31-57 71-57h479c40 0 71 25 71 57v283"/><path d="M220 715h228v145H220zm273 0h228v145H493z"/>
    <circle cx="669" cy="492" r="88"/><path d="M669 404v-38m-62 52-27-27m151 27 27-27m-89 101v66l44 28"/>
    <path d="M286 863c15-61 145-70 186-4l51 83H246z" fill="#171716"/><path d="M293 768c8-54 104-68 136-13 12 21 8 74-13 98-27 31-85 27-112-1-22-24-29-64-11-84z"/>
    <circle cx="332" cy="815" r="7" fill="#171716"/><circle cx="367" cy="814" r="7" fill="#171716"/><path d="M307 827c-17 0-25 8-25 18 0 10 10 16 23 16"/>
  </g>
  <g fill="#171716" font-family="STKaiti, Kaiti SC, serif"><text x="194" y="454" font-size="33">周末的第一件事，</text><text x="194" y="498" font-size="33">是不急着开始。</text><text x="470" y="1574" text-anchor="middle" font-size="31">闹钟会等，早晨也会等。</text></g>
</svg>
