<svg xmlns="http://www.w3.org/2000/svg" width="941" height="1672" viewBox="0 0 941 1672">
  <rect width="941" height="1672" fill="#fffef8"/>
  <g stroke="#d8eaf2" stroke-width="3"><path d="M0 78h941M0 156h941M0 234h941M0 312h941M0 390h941M0 468h941M0 546h941M0 624h941M0 702h941M0 780h941M0 858h941M0 936h941M0 1014h941M0 1092h941M0 1170h941M0 1248h941M0 1326h941M0 1404h941M0 1482h941M0 1560h941"/></g>
  <g fill="#171716" font-family="PingFang SC, Hiragino Sans GB, sans-serif" text-anchor="middle"><text x="470" y="76" font-size="34">2026.08.23　周日</text><text x="470" y="142" font-family="STKaiti, Kaiti SC, serif" font-size="62" font-weight="700">散步绕回了原点</text></g>
  <g fill="none" stroke="#171716" stroke-width="8" stroke-linecap="round" stroke-linejoin="round">
    <path d="M112 1105h717M177 1105v88m91-88v88m405-88v88m91-88v88"/><path d="M130 654c109-111 229 31 339-45s240 35 342-52"/><path d="M130 654l-2 82m341-127 0 86m342-138 0 83"/>
    <path d="M180 890c9-53 104-68 135-12 11 20 7 76-15 98-28 29-85 24-111-5-22-25-27-64-9-81z"/><circle cx="220" cy="936" r="7" fill="#171716"/><circle cx="255" cy="934" r="7" fill="#171716"/><path d="M157 1005l87 60m60-60-45 60"/>
    <path d="M491 890c9-53 104-68 135-12 11 20 7 76-15 98-28 29-85 24-111-5-22-25-27-64-9-81z"/><circle cx="531" cy="936" r="7" fill="#171716"/><circle cx="566" cy="934" r="7" fill="#171716"/><path d="M468 1005l86 60m60-60-45 60"/>
    <path d="M697 976l18-91 59 45c51-13 96 22 96 77 0 55-49 87-104 77-42-8-73-47-69-108z"/><circle cx="761" cy="972" r="7" fill="#171716"/><circle cx="803" cy="970" r="7" fill="#171716"/>
  </g>
  <g fill="#171716" font-family="STKaiti, Kaiti SC, serif"><text x="470" y="1216" text-anchor="middle" font-size="33">地图说前进，脚步说再看看。</text><text x="470" y="1574" text-anchor="middle" font-size="31">转了一圈，还是喜欢原来的方向。</text></g>
</svg>
